<?xml version="1.0" encoding="utf-8"?>
<!-- Generator: Adobe Illustrator 19.0.0, SVG Export Plug-In . SVG Version: 6.00 Build 0)  -->
<svg version="1.1" id="Layer_1" xmlns="http://www.w3.org/2000/svg" xmlns:xlink="http://www.w3.org/1999/xlink" x="0px" y="0px"
	 viewBox="131 -131 512 512" style="enable-background:new 131 -131 512 512;" xml:space="preserve">
<g id="XMLID_2_">
	<path id="XMLID_6_" d="M473.3,125c0-23.2-8.3-43.6-25-60.3s-37.1-25-60.3-25s-43.6,8.3-60.3,25c-16.7,16.7-25,37.1-25,60.3
		s8.3,43.6,25,60.3c16.7,16.7,37.1,25,60.3,25s43.6-8.3,60.3-25S473.3,148.2,473.3,125z M643,88.8v73.3c0,2.8-0.9,5.6-2.8,7.4
		c-1.9,2.8-3.7,3.7-6.5,4.6l-61.2,9.3c-4.6,12.1-8.3,22.3-13,30.6c7.4,11.1,19.5,26,35.2,45.4c1.9,2.8,3.7,5.6,3.7,8.3
		c0,2.8-0.9,5.6-2.8,7.4c-5.6,8.3-16.7,20.4-32.5,36.2c-15.8,15.8-26,23.2-31.5,23.2c-2.8,0-5.6-0.9-8.3-2.8l-45.4-36.2
		c-10.2,4.6-19.5,9.3-30.6,13c-3.7,29.7-6.5,51-9.3,62.1c-1.9,6.5-5.6,9.3-12.1,9.3h-75.1c-2.8,0-5.6-0.9-8.3-2.8
		c-2.8-1.9-3.7-4.6-3.7-7.4l-9.3-61.2c-11.1-3.7-20.4-7.4-29.7-12.1l-46.4,35.2c-1.9,1.9-4.6,2.8-8.3,2.8c-2.8,0-5.6-0.9-8.3-3.7
		c-27.8-25-46.4-43.6-54.7-55.7c-1.9-1.9-2.8-4.6-2.8-7.4s0.9-5.6,2.8-7.4c3.7-4.6,9.3-12.1,16.7-22.3c8.3-10.2,13.9-17.6,17.6-23.2
		c-5.6-11.1-10.2-22.3-13.9-32.5l-61.2-9.3c-2.8,0-5.6-1.9-7.4-3.7c-1.9-2.8-2.8-4.6-2.8-7.4V87.6c0-2.8,0.9-5.6,2.8-7.4
		c1.9-2.8,3.7-3.7,6.5-4.6l62.1-9.3c2.8-10.2,7.4-20.4,13-30.6c-9.3-13-20.4-27.8-35.2-45.4c-1.9-2.8-3.7-5.6-3.7-8.3
		c0-1.9,0.9-4.6,2.8-7.4c5.6-8.3,16.7-19.5,32.5-35.2s26.9-24.1,31.5-24.1c2.8,0,5.6,0.9,8.3,3.7L297-45.7
		c10.2-4.6,19.5-9.3,30.6-13c3.7-29.7,6.5-51,9.3-62.1c1.9-6.5,5.6-9.3,12.1-9.3h76c2.8,0,5.6,0.9,8.3,2.8c2.8,1.9,3.7,4.6,3.7,7.4
		l9.3,61.2c11.1,3.7,20.4,7.4,29.7,12.1l47.3-35.2c1.9-1.9,4.6-2.8,8.3-2.8c2.8,0,5.6,0.9,8.3,3.7c28.8,26,46.4,45.4,54.7,56.6
		c1.9,1.9,2.8,4.6,2.8,7.4s-0.9,5.6-2.8,7.4c-3.7,4.6-9.3,12.1-16.7,22.3C569.6,23,564,30.4,560.3,36c5.6,11.1,10.2,22.3,13.9,32.5
		l61.2,9.3c2.8,0,5.6,1.9,7.4,3.7C642.1,83.3,643,86,643,88.8z"/>
</g>
</svg>
